<svg xmlns="http://www.w3.org/2000/svg" viewBox="0 0 1222.28 337.24"><defs><style>.cls-1{fill:#6e00ff;}.cls-2{fill:#00e7ff;}</style></defs><title>Asset 2</title><g id="Layer_2" data-name="Layer 2"><g id="Layer_1-2" data-name="Layer 1"><path class="cls-1" d="M109.5,30C101.62,39,93.7,48.05,85.83,57.11q-32.22,37.1-64.38,74.25A98.91,98.91,0,0,0,10.74,145.6c-3,5.05-2.06,10.83,3.92,12.75A30.88,30.88,0,0,0,23.59,160q41.69.56,83.37.78c4.83,0,9.2,0,14.29-.05h0c1.88,0,3.33-.07,5.63-.07a4.06,4.06,0,0,0,2.8-1.43c14.4-16.74,29-34.15,43.28-51,4.29-5.06,5.61-11.46,4.65-18-.65-4.42-2.57-8.64-4.17-12.83-5.4-14.11-10.91-28.15-16.37-42.22-3.87-10-7.69-19.95-11.59-29.9-1.74-4.45-5.87-6.49-9.61-4.54a17.48,17.48,0,0,0-4.37,3.77c-3.35,3.63-6.65,7.31-9.82,11.12C120.09,17.56,111.08,28,109.5,30"/><path class="cls-1" d="M332.11,320c-4.7-13.05-10.56-25.69-16-38.47-11.23-26.25-22.91-52.33-33.62-78.8-4.54-11.21-18.28-21.38-31.59-21.25-48.38.46-96.77.18-145.16.18-51.91,0-8,.06-59.93-.07A144.46,144.46,0,0,1,26.1,180,55.09,55.09,0,0,1,0,169.38,24.17,24.17,0,0,0,.84,172C5,181.87,9.26,191.67,13.43,201.5c7.34,17.3,14.62,34.62,22,51.91Q48,282.87,60.6,312.29c3.17,7.41,7.75,13.61,14.93,17.64,9.74,5.47,20.35,7.15,31.29,7.16,96.71.05,97.6,0,194.32.05,6.6,0,13.23.3,19.8-.15,11-.76,14.31-8.24,11.17-17"/><path class="cls-2" d="M264.5,116.46c-2.67,3.07-5.35,6.13-8,9.21q-10.92,12.55-21.82,25.15a33.07,33.07,0,0,0-3.62,4.83c-1,1.71-.7,3.66,1.33,4.32a10.45,10.45,0,0,0,3,.55q14.13.19,28.25.27c1.63,0,3.12,0,4.84,0h0l1.91,0a1.39,1.39,0,0,0,.95-.49c4.87-5.67,9.81-11.57,14.66-17.27a7.51,7.51,0,0,0,1.57-6.11,21.35,21.35,0,0,0-1.41-4.34c-1.83-4.78-3.7-9.54-5.55-14.31-1.31-3.37-2.6-6.75-3.92-10.12-.59-1.51-2-2.2-3.26-1.54a5.76,5.76,0,0,0-1.48,1.28c-1.13,1.22-2.25,2.47-3.32,3.76-.55.66-3.6,4.18-4.13,4.85"/><path class="cls-2" d="M201.75,90.79c-4.22,4.86-8.45,9.69-12.66,14.54q-17.24,19.83-34.44,39.72a51.64,51.64,0,0,0-5.73,7.62c-1.59,2.7-1.11,5.79,2.09,6.82a16.46,16.46,0,0,0,4.78.88q22.31.28,44.6.42c2.59,0,4.93,0,7.65,0h0c1,0,1.78,0,3,0a2.21,2.21,0,0,0,1.5-.76c7.7-9,15.5-18.27,23.15-27.28a11.82,11.82,0,0,0,2.49-9.64,33.32,33.32,0,0,0-2.23-6.86c-2.89-7.55-5.84-15.06-8.76-22.59-2.07-5.33-4.11-10.67-6.2-16-.93-2.39-3.14-3.48-5.14-2.43a9.11,9.11,0,0,0-2.34,2c-1.79,1.94-3.56,3.9-5.25,6-.85,1-5.67,6.59-6.52,7.65"/><path class="cls-2" d="M537.73,230.7a12.69,12.69,0,0,0-17.58,3.55,74.89,74.89,0,0,1-62.52,33.56c-42.06,0-75-31.55-75-71.84a75,75,0,0,1,134.9-45.18l-100,45.31A12.68,12.68,0,0,0,428,219.2l113.12-51.26a12.68,12.68,0,0,0,6.08-17.28A100.37,100.37,0,0,0,357.27,196c0,54.51,44.08,97.2,100.36,97.2a100.21,100.21,0,0,0,83.65-44.89,12.67,12.67,0,0,0-3.55-17.58"/><path class="cls-1" d="M901.48,208.81c-.12,14-2.2,27-7.46,39.46-8.56,20.22-23,34.25-44,41a84.19,84.19,0,0,1-33,3.42,69.67,69.67,0,0,1-35.57-12.81,71.47,71.47,0,0,1-24-30.5,89.74,89.74,0,0,1-6.92-39.08c.48-13.78,3.11-27.07,9.16-39.53,9.31-19.16,24-32.05,44.66-37.87a81.7,81.7,0,0,1,32.83-2.54c27.24,3.47,46.16,18.23,57.26,43.14a85.9,85.9,0,0,1,7.12,35.33m-40.22,4.52c-.11-2.4-.16-4.8-.34-7.2-.64-8.52-2.2-16.84-6.26-24.49a30,30,0,0,0-15-14.16,38.75,38.75,0,0,0-22.31-2.3,27.3,27.3,0,0,0-14.62,7.53c-6.49,6.36-9.47,14.4-11.07,23.09a80.83,80.83,0,0,0-.93,18.38c.41,9.42,1.87,18.62,6.35,27.09a29.65,29.65,0,0,0,11.67,12.41c7.67,4.35,15.93,5.33,24.52,4.1,10-1.41,17.09-6.89,21.84-15.61,4.89-9,6-18.81,6.11-28.84"/><path class="cls-1" d="M931.52,181.15c0-4.13-.09-7.78,0-11.42a40.45,40.45,0,0,1,.73-7.71c2.47-10.76,9.23-18.24,18.62-23.54,7.43-4.19,15.51-6.32,23.92-7.41a102.71,102.71,0,0,1,18.55-.72c10.06.53,19.83,2.35,29,6.79,13.61,6.63,22.39,17.45,27.26,31.61a84.84,84.84,0,0,1,4.53,26.73c.17,14.36.28,28.73,0,43.09-.28,14.68-5.53,27.48-16.2,37.76a54.88,54.88,0,0,1-24.73,13.54,73.8,73.8,0,0,1-18.83,2.25c-6.63,0-13.27.11-19.85-.9-14.15-2.17-27-7.11-37.16-17.62-9.48-9.83-13.38-21.72-12.32-35.29.82-10.54,4.74-19.61,12.47-26.91,5.65-5.33,12.38-8.87,19.64-11.45A112.9,112.9,0,0,1,984,194.38c10.06-1,20.15-.83,30.24-.85,1.87,0,1.87,0,1.83-1.91a44,44,0,0,0-1.92-13.49c-2.57-7.51-8.09-11.66-15.57-13.52-6.73-1.67-13.58-1.85-20.47-1.57a80.1,80.1,0,0,0-27.51,5.62c-6.45,2.67-12.33,6.21-17.08,11.45a7.77,7.77,0,0,1-2,1m85.17,50.65-.38,0c0-2.88-.07-5.76,0-8.64,0-1.5-.49-1.91-1.91-1.84-2.11.1-4.23,0-6.34,0-8.6,0-17.2-.08-25.68,1.64-4.36.89-8.56,2.19-12.16,4.94-5.7,4.34-6.71,12.09-5,18.34,1.77,6.67,6.61,10.37,12.87,12.42A42.47,42.47,0,0,0,999,259.89c8.51-1.53,14.43-6.28,16.27-15,.9-4.28,1-8.74,1.4-13.12"/><path class="cls-1" d="M1222.28,241.62v47.85c0,2,0,2-1.93,2-4.7-.12-9.44.06-14.1-.5-10.18-1.23-19.37-7.54-22-18.84a32.2,32.2,0,0,1-.68-7.14c0-19.84,0-39.69,0-59.53a64.89,64.89,0,0,0-2.17-18.25c-2.14-7.31-5.94-13.44-12.83-17.16-6.25-3.37-13-4.24-20-3.53-12.67,1.3-20.35,10.29-23.32,21.41a57.53,57.53,0,0,0-1.67,14.84q0,43.32,0,86.63c0,2.08,0,2.12-2.11,2.07-5-.12-9.94.12-14.82-.51-12.32-1.61-21.17-10.93-21.69-23.14-.21-4.85-.12-9.7-.12-14.56,0-19-.17-38,.12-56.93a64.53,64.53,0,0,1,16-42.5,60.82,60.82,0,0,1,28.76-18.34,83.89,83.89,0,0,1,34.78-3.08c14,1.65,26.54,6.78,37,16.37a61.67,61.67,0,0,1,17.36,27.9,85.58,85.58,0,0,1,3.44,25.6q0,19.66,0,39.35"/><path class="cls-1" d="M737.34,249.15c0,.47.11.83.11,1.2,0,5,.14,10-.08,15-.31,6.84-2.38,13-7.83,17.62-4.11,3.45-9,5.28-14.15,6.43a82.85,82.85,0,0,1-19,1.81c-8.55-.1-17.12.05-25.64-.51-12.48-.83-24.29-4.19-34.84-11.21s-17.54-16.49-22-28.13A85.15,85.15,0,0,1,608.47,221c-.09-42.71-.06-81.27-.07-124,0-.47,0-.92,0-1.38,7.82-.13,15.63-.88,23.28.59,8.2,1.58,13.38,6.72,15.6,14.61a43.68,43.68,0,0,1,1.78,11.32c.18,19.6.1,35.06.11,54.66q0,18.6,0,37.18a101.41,101.41,0,0,0,1.41,19.38c1.09,5.63,3,10.92,7.27,15a22.77,22.77,0,0,0,11.9,6.06,78.16,78.16,0,0,0,13.7,1.58c8.88,0,17.78-.08,26.63-.75a98.63,98.63,0,0,0,26.2-5.9c.3-.11.62-.18,1.05-.3"/></g></g></svg>